<svg xmlns="http://www.w3.org/2000/svg" viewBox="-140.0 -220.0 310.0 375.0" width="800" height="800">
  <line id="top_front" x1="0.000000" y1="-200.000000" x2="150.000000" y2="-125.000000" stroke="black"/>
  <line id="base_left" x1="0.000000" y1="0.000000" x2="-120.000000" y2="60.000000" stroke="black"/>
  <line id="top_left" x1="0.000000" y1="-200.000000" x2="-120.000000" y2="-140.000000" stroke="black"/>
  <line id="back_right_edge" x1="30.000000" y1="135.000000" x2="30.000000" y2="-65.000000" stroke="black"/>
  <line id="top_right" x1="150.000000" y1="-125.000000" x2="30.000000" y2="-65.000000" stroke="black"/>
  <line id="base_right" x1="150.000000" y1="75.000000" x2="30.000000" y2="135.000000" stroke="black"/>
  <line id="front_right_edge" x1="150.000000" y1="75.000000" x2="150.000000" y2="-125.000000" stroke="black"/>
  <line id="base_front" x1="0.000000" y1="0.000000" x2="150.000000" y2="75.000000" stroke="black"/>
  <line id="top_back" x1="-120.000000" y1="-140.000000" x2="30.000000" y2="-65.000000" stroke="black"/>
  <circle id="base_back_left" cx="-120.000000" cy="60.000000" r="2" fill="black"/>
  <line id="base_back" x1="-120.000000" y1="60.000000" x2="30.000000" y2="135.000000" stroke="black"/>
  <line id="back_left_edge" x1="-120.000000" y1="60.000000" x2="-120.000000" y2="-140.000000" stroke="black"/>
  <circle id="top_back_left" cx="-120.000000" cy="-140.000000" r="2" fill="black"/>
  <circle id="top_front_left" cx="0.000000" cy="-200.000000" r="2" fill="black"/>
  <circle id="base_back_right" cx="30.000000" cy="135.000000" r="2" fill="black"/>
  <line id="front_left_edge" x1="0.000000" y1="0.000000" x2="0.000000" y2="-200.000000" stroke="black"/>
  <circle id="base_front_right" cx="150.000000" cy="75.000000" r="2" fill="black"/>
  <circle id="top_back_right" cx="30.000000" cy="-65.000000" r="2" fill="black"/>
  <circle id="base_front_left" cx="0.000000" cy="0.000000" r="2" fill="black"/>
  <circle id="top_front_right" cx="150.000000" cy="-125.000000" r="2" fill="black"/>
</svg>