<svg xmlns="http://www.w3.org/2000/svg" viewBox="-50.0 -20.0 220.0 300.0" width="800" height="800">
  <line id="base_back" x1="150.000000" y1="0.000000" x2="150.000000" y2="0.000000" stroke="black"/>
  <circle id="base_bl" cx="150.000000" cy="0.000000" r="2" fill="black"/>
  <circle id="base_br" cx="150.000000" cy="0.000000" r="2" fill="black"/>
  <circle id="base_fl" cx="0.000000" cy="0.000000" r="2" fill="black"/>
  <circle id="base_fr" cx="0.000000" cy="0.000000" r="2" fill="black"/>
  <line id="base_front" x1="0.000000" y1="0.000000" x2="0.000000" y2="0.000000" stroke="black"/>
  <line id="base_left" x1="150.000000" y1="0.000000" x2="0.000000" y2="0.000000" stroke="black"/>
  <line id="base_right" x1="0.000000" y1="0.000000" x2="150.000000" y2="0.000000" stroke="black"/>
  <line id="corner_bl" x1="150.000000" y1="0.000000" x2="150.000000" y2="180.000000" stroke="black"/>
  <line id="corner_br" x1="150.000000" y1="0.000000" x2="150.000000" y2="180.000000" stroke="black"/>
  <line id="corner_fl" x1="0.000000" y1="0.000000" x2="0.000000" y2="180.000000" stroke="black"/>
  <line id="corner_fr" x1="0.000000" y1="0.000000" x2="0.000000" y2="180.000000" stroke="black"/>
  <line id="entrance" x1="-0.000000" y1="100.000000" x2="0.000000" y2="140.000000" stroke="black"/>
  <line id="gable_bl" x1="150.000000" y1="180.000000" x2="150.000000" y2="260.000000" stroke="black"/>
  <line id="gable_br" x1="150.000000" y1="180.000000" x2="150.000000" y2="260.000000" stroke="black"/>
  <line id="gable_fl" x1="0.000000" y1="180.000000" x2="0.000000" y2="260.000000" stroke="black"/>
  <line id="gable_fr" x1="0.000000" y1="180.000000" x2="0.000000" y2="260.000000" stroke="black"/>
  <line id="perch" x1="0.000000" y1="90.000000" x2="-30.000000" y2="90.000000" stroke="black"/>
  <circle id="perch_inner" cx="0.000000" cy="90.000000" r="2" fill="black"/>
  <circle id="perch_outer" cx="-30.000000" cy="90.000000" r="2" fill="black"/>
  <line id="ridge" x1="0.000000" y1="260.000000" x2="150.000000" y2="260.000000" stroke="black"/>
  <circle id="ridge_back" cx="150.000000" cy="260.000000" r="2" fill="black"/>
  <circle id="ridge_front" cx="0.000000" cy="260.000000" r="2" fill="black"/>
  <line id="wall_back" x1="150.000000" y1="180.000000" x2="150.000000" y2="180.000000" stroke="black"/>
  <circle id="wall_bl" cx="150.000000" cy="180.000000" r="2" fill="black"/>
  <circle id="wall_br" cx="150.000000" cy="180.000000" r="2" fill="black"/>
  <circle id="wall_fl" cx="0.000000" cy="180.000000" r="2" fill="black"/>
  <circle id="wall_fr" cx="0.000000" cy="180.000000" r="2" fill="black"/>
  <line id="wall_front" x1="0.000000" y1="180.000000" x2="0.000000" y2="180.000000" stroke="black"/>
  <line id="wall_left" x1="150.000000" y1="180.000000" x2="0.000000" y2="180.000000" stroke="black"/>
  <line id="wall_right" x1="0.000000" y1="180.000000" x2="150.000000" y2="180.000000" stroke="black"/>
</svg>