<svg xmlns="http://www.w3.org/2000/svg" viewBox="-170.0 -242.5 340.0 412.5" width="800" height="800">
  <line id="entrance_inner_edge0" x1="85.000000" y1="-67.500000" x2="82.320508" y2="-78.839746" stroke="black"/>
  <line id="entrance_inner_edge1" x1="82.320508" y1="-78.839746" x2="75.000000" y2="-89.820508" stroke="black"/>
  <line id="entrance_inner_edge10" x1="75.000000" y1="-55.179492" x2="82.320508" y2="-58.839746" stroke="black"/>
  <line id="entrance_inner_edge11" x1="82.320508" y1="-58.839746" x2="85.000000" y2="-67.500000" stroke="black"/>
  <line id="entrance_inner_edge2" x1="75.000000" y1="-89.820508" x2="65.000000" y2="-97.500000" stroke="black"/>
  <line id="entrance_inner_edge3" x1="65.000000" y1="-97.500000" x2="55.000000" y2="-99.820508" stroke="black"/>
  <line id="entrance_inner_edge4" x1="55.000000" y1="-99.820508" x2="47.679492" y2="-96.160254" stroke="black"/>
  <line id="entrance_inner_edge5" x1="47.679492" y1="-96.160254" x2="45.000000" y2="-87.500000" stroke="black"/>
  <line id="entrance_inner_edge6" x1="45.000000" y1="-87.500000" x2="47.679492" y2="-76.160254" stroke="black"/>
  <line id="entrance_inner_edge7" x1="47.679492" y1="-76.160254" x2="55.000000" y2="-65.179492" stroke="black"/>
  <line id="entrance_inner_edge8" x1="55.000000" y1="-65.179492" x2="65.000000" y2="-57.500000" stroke="black"/>
  <line id="entrance_inner_edge9" x1="65.000000" y1="-57.500000" x2="75.000000" y2="-55.179492" stroke="black"/>
  <circle id="entrance_inner_p0" cx="85.000000" cy="-67.500000" r="2" fill="black"/>
  <circle id="entrance_inner_p1" cx="82.320508" cy="-78.839746" r="2" fill="black"/>
  <circle id="entrance_inner_p10" cx="75.000000" cy="-55.179492" r="2" fill="black"/>
  <circle id="entrance_inner_p11" cx="82.320508" cy="-58.839746" r="2" fill="black"/>
  <circle id="entrance_inner_p2" cx="75.000000" cy="-89.820508" r="2" fill="black"/>
  <circle id="entrance_inner_p3" cx="65.000000" cy="-97.500000" r="2" fill="black"/>
  <circle id="entrance_inner_p4" cx="55.000000" cy="-99.820508" r="2" fill="black"/>
  <circle id="entrance_inner_p5" cx="47.679492" cy="-96.160254" r="2" fill="black"/>
  <circle id="entrance_inner_p6" cx="45.000000" cy="-87.500000" r="2" fill="black"/>
  <circle id="entrance_inner_p7" cx="47.679492" cy="-76.160254" r="2" fill="black"/>
  <circle id="entrance_inner_p8" cx="55.000000" cy="-65.179492" r="2" fill="black"/>
  <circle id="entrance_inner_p9" cx="65.000000" cy="-57.500000" r="2" fill="black"/>
  <line id="entrance_outer_edge0" x1="95.000000" y1="-72.500000" x2="92.320508" y2="-83.839746" stroke="black"/>
  <line id="entrance_outer_edge1" x1="92.320508" y1="-83.839746" x2="85.000000" y2="-94.820508" stroke="black"/>
  <line id="entrance_outer_edge10" x1="85.000000" y1="-60.179492" x2="92.320508" y2="-63.839746" stroke="black"/>
  <line id="entrance_outer_edge11" x1="92.320508" y1="-63.839746" x2="95.000000" y2="-72.500000" stroke="black"/>
  <line id="entrance_outer_edge2" x1="85.000000" y1="-94.820508" x2="75.000000" y2="-102.500000" stroke="black"/>
  <line id="entrance_outer_edge3" x1="75.000000" y1="-102.500000" x2="65.000000" y2="-104.820508" stroke="black"/>
  <line id="entrance_outer_edge4" x1="65.000000" y1="-104.820508" x2="57.679492" y2="-101.160254" stroke="black"/>
  <line id="entrance_outer_edge5" x1="57.679492" y1="-101.160254" x2="55.000000" y2="-92.500000" stroke="black"/>
  <line id="entrance_outer_edge6" x1="55.000000" y1="-92.500000" x2="57.679492" y2="-81.160254" stroke="black"/>
  <line id="entrance_outer_edge7" x1="57.679492" y1="-81.160254" x2="65.000000" y2="-70.179492" stroke="black"/>
  <line id="entrance_outer_edge8" x1="65.000000" y1="-70.179492" x2="75.000000" y2="-62.500000" stroke="black"/>
  <line id="entrance_outer_edge9" x1="75.000000" y1="-62.500000" x2="85.000000" y2="-60.179492" stroke="black"/>
  <circle id="entrance_outer_p0" cx="95.000000" cy="-72.500000" r="2" fill="black"/>
  <circle id="entrance_outer_p1" cx="92.320508" cy="-83.839746" r="2" fill="black"/>
  <circle id="entrance_outer_p10" cx="85.000000" cy="-60.179492" r="2" fill="black"/>
  <circle id="entrance_outer_p11" cx="92.320508" cy="-63.839746" r="2" fill="black"/>
  <circle id="entrance_outer_p2" cx="85.000000" cy="-94.820508" r="2" fill="black"/>
  <circle id="entrance_outer_p3" cx="75.000000" cy="-102.500000" r="2" fill="black"/>
  <circle id="entrance_outer_p4" cx="65.000000" cy="-104.820508" r="2" fill="black"/>
  <circle id="entrance_outer_p5" cx="57.679492" cy="-101.160254" r="2" fill="black"/>
  <circle id="entrance_outer_p6" cx="55.000000" cy="-92.500000" r="2" fill="black"/>
  <circle id="entrance_outer_p7" cx="57.679492" cy="-81.160254" r="2" fill="black"/>
  <circle id="entrance_outer_p8" cx="65.000000" cy="-70.179492" r="2" fill="black"/>
  <circle id="entrance_outer_p9" cx="75.000000" cy="-62.500000" r="2" fill="black"/>
  <line id="entrance_tunnel0" x1="95.000000" y1="-72.500000" x2="85.000000" y2="-67.500000" stroke="black"/>
  <line id="entrance_tunnel3" x1="75.000000" y1="-102.500000" x2="65.000000" y2="-97.500000" stroke="black"/>
  <line id="entrance_tunnel6" x1="55.000000" y1="-92.500000" x2="45.000000" y2="-87.500000" stroke="black"/>
  <line id="entrance_tunnel9" x1="75.000000" y1="-62.500000" x2="65.000000" y2="-57.500000" stroke="black"/>
  <line id="inner_roof_gable_bl" x1="-130.000000" y1="-105.000000" x2="-65.000000" y2="-142.500000" stroke="black"/>
  <line id="inner_roof_gable_br" x1="0.000000" y1="-40.000000" x2="-65.000000" y2="-142.500000" stroke="black"/>
  <line id="inner_roof_gable_fl" x1="0.000000" y1="-170.000000" x2="65.000000" y2="-207.500000" stroke="black"/>
  <line id="inner_roof_gable_fr" x1="130.000000" y1="-105.000000" x2="65.000000" y2="-207.500000" stroke="black"/>
  <line id="inner_roof_ridge" x1="65.000000" y1="-207.500000" x2="-65.000000" y2="-142.500000" stroke="black"/>
  <circle id="inner_roof_ridge_back" cx="-65.000000" cy="-142.500000" r="2" fill="black"/>
  <circle id="inner_roof_ridge_front" cx="65.000000" cy="-207.500000" r="2" fill="black"/>
  <line id="outer_roof_gable_bl" x1="-150.000000" y1="-105.000000" x2="-75.000000" y2="-147.500000" stroke="black"/>
  <line id="outer_roof_gable_br" x1="0.000000" y1="-30.000000" x2="-75.000000" y2="-147.500000" stroke="black"/>
  <line id="outer_roof_gable_fl" x1="0.000000" y1="-180.000000" x2="75.000000" y2="-222.500000" stroke="black"/>
  <line id="outer_roof_gable_fr" x1="150.000000" y1="-105.000000" x2="75.000000" y2="-222.500000" stroke="black"/>
  <line id="outer_roof_ridge" x1="75.000000" y1="-222.500000" x2="-75.000000" y2="-147.500000" stroke="black"/>
  <circle id="outer_roof_ridge_back" cx="-75.000000" cy="-147.500000" r="2" fill="black"/>
  <circle id="outer_roof_ridge_front" cx="75.000000" cy="-222.500000" r="2" fill="black"/>
  <ellipse id="perch_cap" cx="100.000000" cy="-65.000000" rx="4.000000" ry="2.309401" transform="rotate(-26.6 100.000000 -65.000000)" fill="none" stroke="black"/>
  <circle id="perch_end" cx="100.000000" cy="-65.000000" r="2" fill="black"/>
  <line id="perch_shaft" x1="75.000000" y1="-52.500000" x2="100.000000" y2="-65.000000" stroke="black"/>
  <circle id="perch_start" cx="75.000000" cy="-52.500000" r="2" fill="black"/>
  <line id="walls_inner_base_back" x1="0.000000" y1="140.000000" x2="-130.000000" y2="75.000000" stroke="black"/>
  <circle id="walls_inner_base_bl" cx="-130.000000" cy="75.000000" r="2" fill="black"/>
  <circle id="walls_inner_base_br" cx="0.000000" cy="140.000000" r="2" fill="black"/>
  <circle id="walls_inner_base_fl" cx="0.000000" cy="10.000000" r="2" fill="black"/>
  <circle id="walls_inner_base_fr" cx="130.000000" cy="75.000000" r="2" fill="black"/>
  <line id="walls_inner_base_front" x1="0.000000" y1="10.000000" x2="130.000000" y2="75.000000" stroke="black"/>
  <line id="walls_inner_base_left" x1="-130.000000" y1="75.000000" x2="0.000000" y2="10.000000" stroke="black"/>
  <line id="walls_inner_base_right" x1="130.000000" y1="75.000000" x2="0.000000" y2="140.000000" stroke="black"/>
  <line id="walls_inner_edge_bl" x1="-130.000000" y1="75.000000" x2="-130.000000" y2="-105.000000" stroke="black"/>
  <line id="walls_inner_edge_br" x1="0.000000" y1="140.000000" x2="0.000000" y2="-40.000000" stroke="black"/>
  <line id="walls_inner_edge_fl" x1="0.000000" y1="10.000000" x2="0.000000" y2="-170.000000" stroke="black"/>
  <line id="walls_inner_edge_fr" x1="130.000000" y1="75.000000" x2="130.000000" y2="-105.000000" stroke="black"/>
  <line id="walls_inner_top_back" x1="0.000000" y1="-40.000000" x2="-130.000000" y2="-105.000000" stroke="black"/>
  <circle id="walls_inner_top_bl" cx="-130.000000" cy="-105.000000" r="2" fill="black"/>
  <circle id="walls_inner_top_br" cx="0.000000" cy="-40.000000" r="2" fill="black"/>
  <circle id="walls_inner_top_fl" cx="0.000000" cy="-170.000000" r="2" fill="black"/>
  <circle id="walls_inner_top_fr" cx="130.000000" cy="-105.000000" r="2" fill="black"/>
  <line id="walls_inner_top_front" x1="0.000000" y1="-170.000000" x2="130.000000" y2="-105.000000" stroke="black"/>
  <line id="walls_inner_top_left" x1="-130.000000" y1="-105.000000" x2="0.000000" y2="-170.000000" stroke="black"/>
  <line id="walls_inner_top_right" x1="130.000000" y1="-105.000000" x2="0.000000" y2="-40.000000" stroke="black"/>
  <line id="walls_outer_base_back" x1="0.000000" y1="150.000000" x2="-150.000000" y2="75.000000" stroke="black"/>
  <circle id="walls_outer_base_bl" cx="-150.000000" cy="75.000000" r="2" fill="black"/>
  <circle id="walls_outer_base_br" cx="0.000000" cy="150.000000" r="2" fill="black"/>
  <circle id="walls_outer_base_fl" cx="0.000000" cy="0.000000" r="2" fill="black"/>
  <circle id="walls_outer_base_fr" cx="150.000000" cy="75.000000" r="2" fill="black"/>
  <line id="walls_outer_base_front" x1="0.000000" y1="0.000000" x2="150.000000" y2="75.000000" stroke="black"/>
  <line id="walls_outer_base_left" x1="-150.000000" y1="75.000000" x2="0.000000" y2="0.000000" stroke="black"/>
  <line id="walls_outer_base_right" x1="150.000000" y1="75.000000" x2="0.000000" y2="150.000000" stroke="black"/>
  <line id="walls_outer_edge_bl" x1="-150.000000" y1="75.000000" x2="-150.000000" y2="-105.000000" stroke="black"/>
  <line id="walls_outer_edge_br" x1="0.000000" y1="150.000000" x2="0.000000" y2="-30.000000" stroke="black"/>
  <line id="walls_outer_edge_fl" x1="0.000000" y1="0.000000" x2="0.000000" y2="-180.000000" stroke="black"/>
  <line id="walls_outer_edge_fr" x1="150.000000" y1="75.000000" x2="150.000000" y2="-105.000000" stroke="black"/>
  <line id="walls_outer_top_back" x1="0.000000" y1="-30.000000" x2="-150.000000" y2="-105.000000" stroke="black"/>
  <circle id="walls_outer_top_bl" cx="-150.000000" cy="-105.000000" r="2" fill="black"/>
  <circle id="walls_outer_top_br" cx="0.000000" cy="-30.000000" r="2" fill="black"/>
  <circle id="walls_outer_top_fl" cx="0.000000" cy="-180.000000" r="2" fill="black"/>
  <circle id="walls_outer_top_fr" cx="150.000000" cy="-105.000000" r="2" fill="black"/>
  <line id="walls_outer_top_front" x1="0.000000" y1="-180.000000" x2="150.000000" y2="-105.000000" stroke="black"/>
  <line id="walls_outer_top_left" x1="-150.000000" y1="-105.000000" x2="0.000000" y2="-180.000000" stroke="black"/>
  <line id="walls_outer_top_right" x1="150.000000" y1="-105.000000" x2="0.000000" y2="-30.000000" stroke="black"/>
</svg>