<svg xmlns="http://www.w3.org/2000/svg" viewBox="-170.0 -242.5 340.0 412.5" width="800" height="800">
  <line id="base_back" x1="0.000000" y1="150.000000" x2="-150.000000" y2="75.000000" stroke="black"/>
  <circle id="base_bl" cx="-150.000000" cy="75.000000" r="2" fill="black"/>
  <circle id="base_br" cx="0.000000" cy="150.000000" r="2" fill="black"/>
  <circle id="base_fl" cx="0.000000" cy="0.000000" r="2" fill="black"/>
  <circle id="base_fr" cx="150.000000" cy="75.000000" r="2" fill="black"/>
  <line id="base_front" x1="0.000000" y1="0.000000" x2="150.000000" y2="75.000000" stroke="black"/>
  <line id="base_left" x1="-150.000000" y1="75.000000" x2="0.000000" y2="0.000000" stroke="black"/>
  <line id="base_right" x1="150.000000" y1="75.000000" x2="0.000000" y2="150.000000" stroke="black"/>
  <line id="corner_bl" x1="-150.000000" y1="75.000000" x2="-150.000000" y2="-105.000000" stroke="black"/>
  <line id="corner_br" x1="0.000000" y1="150.000000" x2="0.000000" y2="-30.000000" stroke="black"/>
  <line id="corner_fl" x1="0.000000" y1="0.000000" x2="0.000000" y2="-180.000000" stroke="black"/>
  <line id="corner_fr" x1="150.000000" y1="75.000000" x2="150.000000" y2="-105.000000" stroke="black"/>
  <ellipse id="entrance" cx="75.000000" cy="-82.500000" rx="20.000000" ry="11.547005" transform="rotate(-90.0 75.000000 -82.500000)" fill="none" stroke="black"/>
  <line id="gable_bl" x1="-150.000000" y1="-105.000000" x2="-75.000000" y2="-147.500000" stroke="black"/>
  <line id="gable_br" x1="0.000000" y1="-30.000000" x2="-75.000000" y2="-147.500000" stroke="black"/>
  <line id="gable_fl" x1="0.000000" y1="-180.000000" x2="75.000000" y2="-222.500000" stroke="black"/>
  <line id="gable_fr" x1="150.000000" y1="-105.000000" x2="75.000000" y2="-222.500000" stroke="black"/>
  <line id="perch" x1="75.000000" y1="-52.500000" x2="105.000000" y2="-67.500000" stroke="black"/>
  <circle id="perch_inner" cx="75.000000" cy="-52.500000" r="2" fill="black"/>
  <circle id="perch_outer" cx="105.000000" cy="-67.500000" r="2" fill="black"/>
  <line id="ridge" x1="75.000000" y1="-222.500000" x2="-75.000000" y2="-147.500000" stroke="black"/>
  <circle id="ridge_back" cx="-75.000000" cy="-147.500000" r="2" fill="black"/>
  <circle id="ridge_front" cx="75.000000" cy="-222.500000" r="2" fill="black"/>
  <line id="wall_back" x1="0.000000" y1="-30.000000" x2="-150.000000" y2="-105.000000" stroke="black"/>
  <circle id="wall_bl" cx="-150.000000" cy="-105.000000" r="2" fill="black"/>
  <circle id="wall_br" cx="0.000000" cy="-30.000000" r="2" fill="black"/>
  <circle id="wall_fl" cx="0.000000" cy="-180.000000" r="2" fill="black"/>
  <circle id="wall_fr" cx="150.000000" cy="-105.000000" r="2" fill="black"/>
  <line id="wall_front" x1="0.000000" y1="-180.000000" x2="150.000000" y2="-105.000000" stroke="black"/>
  <line id="wall_left" x1="-150.000000" y1="-105.000000" x2="0.000000" y2="-180.000000" stroke="black"/>
  <line id="wall_right" x1="150.000000" y1="-105.000000" x2="0.000000" y2="-30.000000" stroke="black"/>
</svg>