<svg xmlns="http://www.w3.org/2000/svg" viewBox="-140.0 -215.6 318.2 370.6" width="800" height="800">
  <circle id="base_front_right" cx="149.999926" cy="74.887074" r="2" fill="black"/>
  <line id="front_left_edge" x1="0.000000" y1="0.000000" x2="8.215006" y2="-195.609518" stroke="black"/>
  <circle id="base_back_right" cx="30.000022" cy="134.999960" r="2" fill="black"/>
  <circle id="top_back_left" cx="-119.813018" cy="-140.085495" r="2" fill="black"/>
  <circle id="roof_peak" cx="58.210839" cy="-170.645087" r="2" fill="black"/>
  <circle id="top_back_right" cx="30.174411" cy="-65.079228" r="2" fill="black"/>
  <line id="base_right" x1="149.999926" y1="74.887074" x2="30.000022" y2="134.999960" stroke="black"/>
  <line id="top_right" x1="158.202505" y1="-120.716224" x2="30.174411" y2="-65.079228" stroke="black"/>
  <circle id="top_front_right" cx="158.202505" cy="-120.716224" r="2" fill="black"/>
  <line id="back_right_edge" x1="30.000022" y1="134.999960" x2="30.174411" y2="-65.079228" stroke="black"/>
  <line id="roof_front_right" x1="158.202505" y1="-120.716224" x2="58.210839" y2="-170.645087" stroke="black"/>
  <line id="top_back" x1="-119.813018" y1="-140.085495" x2="30.174411" y2="-65.079228" stroke="black"/>
  <line id="top_left" x1="8.215006" y1="-195.609518" x2="-119.813018" y2="-140.085495" stroke="black"/>
  <line id="base_left" x1="0.000000" y1="0.000000" x2="-120.000000" y2="59.999978" stroke="black"/>
  <line id="roof_back_left" x1="-119.813018" y1="-140.085495" x2="58.210839" y2="-170.645087" stroke="black"/>
  <line id="back_left_edge" x1="-120.000000" y1="59.999978" x2="-119.813018" y2="-140.085495" stroke="black"/>
  <line id="roof_back_right" x1="30.174411" y1="-65.079228" x2="58.210839" y2="-170.645087" stroke="black"/>
  <circle id="base_front_left" cx="0.000000" cy="0.000000" r="2" fill="black"/>
  <circle id="base_back_left" cx="-120.000000" cy="59.999978" r="2" fill="black"/>
  <line id="front_right_edge" x1="149.999926" y1="74.887074" x2="158.202505" y2="-120.716224" stroke="black"/>
  <line id="base_front" x1="0.000000" y1="0.000000" x2="149.999926" y2="74.887074" stroke="black"/>
  <line id="base_back" x1="-120.000000" y1="59.999978" x2="30.000022" y2="134.999960" stroke="black"/>
  <line id="top_front" x1="8.215006" y1="-195.609518" x2="158.202505" y2="-120.716224" stroke="black"/>
  <circle id="top_front_left" cx="8.215006" cy="-195.609518" r="2" fill="black"/>
  <line id="roof_front_left" x1="8.215006" y1="-195.609518" x2="58.210839" y2="-170.645087" stroke="black"/>
</svg>