<svg xmlns="http://www.w3.org/2000/svg" viewBox="-49.0 -20.0 219.0 300.0" width="800" height="800">
  <circle id="entrance_inner" cx="10.000000" cy="120.000000" r="20.000000" fill="none" stroke="black"/>
  <circle id="entrance_outer" cx="0.000000" cy="120.000000" r="20.000000" fill="none" stroke="black"/>
  <line id="inner_roof_gable_bl" x1="140.000000" y1="180.000000" x2="140.000000" y2="250.000000" stroke="black"/>
  <line id="inner_roof_gable_br" x1="140.000000" y1="180.000000" x2="140.000000" y2="250.000000" stroke="black"/>
  <line id="inner_roof_gable_fl" x1="10.000000" y1="180.000000" x2="10.000000" y2="250.000000" stroke="black"/>
  <line id="inner_roof_gable_fr" x1="10.000000" y1="180.000000" x2="10.000000" y2="250.000000" stroke="black"/>
  <line id="inner_roof_ridge" x1="10.000000" y1="250.000000" x2="140.000000" y2="250.000000" stroke="black"/>
  <circle id="inner_roof_ridge_back" cx="140.000000" cy="250.000000" r="2" fill="black"/>
  <circle id="inner_roof_ridge_front" cx="10.000000" cy="250.000000" r="2" fill="black"/>
  <line id="outer_roof_gable_bl" x1="150.000000" y1="180.000000" x2="150.000000" y2="260.000000" stroke="black"/>
  <line id="outer_roof_gable_br" x1="150.000000" y1="180.000000" x2="150.000000" y2="260.000000" stroke="black"/>
  <line id="outer_roof_gable_fl" x1="0.000000" y1="180.000000" x2="0.000000" y2="260.000000" stroke="black"/>
  <line id="outer_roof_gable_fr" x1="0.000000" y1="180.000000" x2="0.000000" y2="260.000000" stroke="black"/>
  <line id="outer_roof_ridge" x1="0.000000" y1="260.000000" x2="150.000000" y2="260.000000" stroke="black"/>
  <circle id="outer_roof_ridge_back" cx="150.000000" cy="260.000000" r="2" fill="black"/>
  <circle id="outer_roof_ridge_front" cx="0.000000" cy="260.000000" r="2" fill="black"/>
  <circle id="perch_cap" cx="-25.000000" cy="90.000000" r="4.000000" fill="none" stroke="black"/>
  <circle id="perch_end" cx="-25.000000" cy="90.000000" r="2" fill="black"/>
  <line id="perch_shaft" x1="0.000000" y1="90.000000" x2="-25.000000" y2="90.000000" stroke="black"/>
  <circle id="perch_start" cx="0.000000" cy="90.000000" r="2" fill="black"/>
  <line id="walls_inner_base_back" x1="140.000000" y1="0.000000" x2="140.000000" y2="0.000000" stroke="black"/>
  <circle id="walls_inner_base_bl" cx="140.000000" cy="0.000000" r="2" fill="black"/>
  <circle id="walls_inner_base_br" cx="140.000000" cy="0.000000" r="2" fill="black"/>
  <circle id="walls_inner_base_fl" cx="10.000000" cy="0.000000" r="2" fill="black"/>
  <circle id="walls_inner_base_fr" cx="10.000000" cy="0.000000" r="2" fill="black"/>
  <line id="walls_inner_base_front" x1="10.000000" y1="0.000000" x2="10.000000" y2="0.000000" stroke="black"/>
  <line id="walls_inner_base_left" x1="140.000000" y1="0.000000" x2="10.000000" y2="0.000000" stroke="black"/>
  <line id="walls_inner_base_right" x1="10.000000" y1="0.000000" x2="140.000000" y2="0.000000" stroke="black"/>
  <line id="walls_inner_edge_bl" x1="140.000000" y1="0.000000" x2="140.000000" y2="180.000000" stroke="black"/>
  <line id="walls_inner_edge_br" x1="140.000000" y1="0.000000" x2="140.000000" y2="180.000000" stroke="black"/>
  <line id="walls_inner_edge_fl" x1="10.000000" y1="0.000000" x2="10.000000" y2="180.000000" stroke="black"/>
  <line id="walls_inner_edge_fr" x1="10.000000" y1="0.000000" x2="10.000000" y2="180.000000" stroke="black"/>
  <line id="walls_inner_top_back" x1="140.000000" y1="180.000000" x2="140.000000" y2="180.000000" stroke="black"/>
  <circle id="walls_inner_top_bl" cx="140.000000" cy="180.000000" r="2" fill="black"/>
  <circle id="walls_inner_top_br" cx="140.000000" cy="180.000000" r="2" fill="black"/>
  <circle id="walls_inner_top_fl" cx="10.000000" cy="180.000000" r="2" fill="black"/>
  <circle id="walls_inner_top_fr" cx="10.000000" cy="180.000000" r="2" fill="black"/>
  <line id="walls_inner_top_front" x1="10.000000" y1="180.000000" x2="10.000000" y2="180.000000" stroke="black"/>
  <line id="walls_inner_top_left" x1="140.000000" y1="180.000000" x2="10.000000" y2="180.000000" stroke="black"/>
  <line id="walls_inner_top_right" x1="10.000000" y1="180.000000" x2="140.000000" y2="180.000000" stroke="black"/>
  <line id="walls_outer_base_back" x1="150.000000" y1="0.000000" x2="150.000000" y2="0.000000" stroke="black"/>
  <circle id="walls_outer_base_bl" cx="150.000000" cy="0.000000" r="2" fill="black"/>
  <circle id="walls_outer_base_br" cx="150.000000" cy="0.000000" r="2" fill="black"/>
  <circle id="walls_outer_base_fl" cx="0.000000" cy="0.000000" r="2" fill="black"/>
  <circle id="walls_outer_base_fr" cx="0.000000" cy="0.000000" r="2" fill="black"/>
  <line id="walls_outer_base_front" x1="0.000000" y1="0.000000" x2="0.000000" y2="0.000000" stroke="black"/>
  <line id="walls_outer_base_left" x1="150.000000" y1="0.000000" x2="0.000000" y2="0.000000" stroke="black"/>
  <line id="walls_outer_base_right" x1="0.000000" y1="0.000000" x2="150.000000" y2="0.000000" stroke="black"/>
  <line id="walls_outer_edge_bl" x1="150.000000" y1="0.000000" x2="150.000000" y2="180.000000" stroke="black"/>
  <line id="walls_outer_edge_br" x1="150.000000" y1="0.000000" x2="150.000000" y2="180.000000" stroke="black"/>
  <line id="walls_outer_edge_fl" x1="0.000000" y1="0.000000" x2="0.000000" y2="180.000000" stroke="black"/>
  <line id="walls_outer_edge_fr" x1="0.000000" y1="0.000000" x2="0.000000" y2="180.000000" stroke="black"/>
  <line id="walls_outer_top_back" x1="150.000000" y1="180.000000" x2="150.000000" y2="180.000000" stroke="black"/>
  <circle id="walls_outer_top_bl" cx="150.000000" cy="180.000000" r="2" fill="black"/>
  <circle id="walls_outer_top_br" cx="150.000000" cy="180.000000" r="2" fill="black"/>
  <circle id="walls_outer_top_fl" cx="0.000000" cy="180.000000" r="2" fill="black"/>
  <circle id="walls_outer_top_fr" cx="0.000000" cy="180.000000" r="2" fill="black"/>
  <line id="walls_outer_top_front" x1="0.000000" y1="180.000000" x2="0.000000" y2="180.000000" stroke="black"/>
  <line id="walls_outer_top_left" x1="150.000000" y1="180.000000" x2="0.000000" y2="180.000000" stroke="black"/>
  <line id="walls_outer_top_right" x1="0.000000" y1="180.000000" x2="150.000000" y2="180.000000" stroke="black"/>
</svg>