<svg xmlns="http://www.w3.org/2000/svg" viewBox="-40.0 -20.0 212.0 306.3" width="800" height="800">
  <line id="roof_front_right_ridge" x1="-2.169118" y1="207.589648" x2="-19.938865" y2="266.306447" stroke="black"/>
  <line id="back_left_edge" x1="152.000000" y1="0.009488" x2="149.244963" y2="199.990512" stroke="black"/>
  <line id="front_left_edge" x1="0.000000" y1="0.000000" x2="-2.750988" y2="199.977988" stroke="black"/>
  <circle id="perch_end" cx="-20.000000" cy="150.000000" r="2" fill="black"/>
  <circle id="base_front_left" cx="0.000000" cy="0.000000" r="2" fill="black"/>
  <circle id="top_front_left" cx="-2.750988" cy="199.977988" r="2" fill="black"/>
  <line id="front_right_edge" x1="0.090382" y1="7.605496" x2="-2.169118" y2="207.589648" stroke="black"/>
  <line id="base_front" x1="0.000000" y1="0.000000" x2="0.090382" y2="7.605496" stroke="black"/>
  <circle id="base_back_left" cx="152.000000" cy="0.009488" r="2" fill="black"/>
  <line id="top_front" x1="-2.750988" y1="199.977988" x2="-2.169118" y2="207.589648" stroke="black"/>
  <line id="roof_back_right_ridge" x1="149.638670" y1="200.003304" x2="-19.938865" y2="266.306447" stroke="black"/>
  <line id="back_right_edge" x1="151.900674" y1="0.016096" x2="149.638670" y2="200.003304" stroke="black"/>
  <circle id="top_back_right" cx="149.638670" cy="200.003304" r="2" fill="black"/>
  <line id="base_back" x1="152.000000" y1="0.009488" x2="151.900674" y2="0.016096" stroke="black"/>
  <line id="top_left" x1="-2.750988" y1="199.977988" x2="149.244963" y2="199.990512" stroke="black"/>
  <line id="top_right" x1="-2.169118" y1="207.589648" x2="149.638670" y2="200.003304" stroke="black"/>
  <circle id="base_front_right" cx="0.090382" cy="7.605496" r="2" fill="black"/>
  <line id="roof_front_left_ridge" x1="-2.750988" y1="199.977988" x2="-19.938865" y2="266.306447" stroke="black"/>
  <circle id="entrance_hole" cx="0.000000" cy="150.000000" r="19.000000" fill="none" stroke="black"/>
  <circle id="entrance_center" cx="0.000000" cy="150.000000" r="2" fill="black"/>
  <line id="top_back" x1="149.244963" y1="199.990512" x2="149.638670" y2="200.003304" stroke="black"/>
  <line id="perch" x1="0.000000" y1="150.000000" x2="-20.000000" y2="150.000000" stroke="black"/>
  <circle id="base_back_right" cx="151.900674" cy="0.016096" r="2" fill="black"/>
  <circle id="roof_peak" cx="-19.938865" cy="266.306447" r="2" fill="black"/>
  <line id="base_left" x1="0.000000" y1="0.000000" x2="152.000000" y2="0.009488" stroke="black"/>
  <line id="base_right" x1="0.090382" y1="7.605496" x2="151.900674" y2="0.016096" stroke="black"/>
  <circle id="top_front_right" cx="-2.169118" cy="207.589648" r="2" fill="black"/>
  <line id="roof_back_left_ridge" x1="149.244963" y1="199.990512" x2="-19.938865" y2="266.306447" stroke="black"/>
  <circle id="top_back_left" cx="149.244963" cy="199.990512" r="2" fill="black"/>
</svg>