<svg xmlns="http://www.w3.org/2000/svg" viewBox="-20.0 -20.0 192.9 306.3" width="800" height="800">
  <line id="perch" x1="76.000000" y1="150.000000" x2="76.000000" y2="150.000000" stroke="black"/>
  <line id="roof_front_right_ridge" x1="152.920191" y1="207.589648" x2="73.948211" y2="266.306447" stroke="black"/>
  <circle id="base_front_left" cx="0.000000" cy="0.000000" r="2" fill="black"/>
  <line id="base_right" x1="151.809579" y1="7.605496" x2="151.999983" y2="0.016096" stroke="black"/>
  <line id="roof_front_left_ridge" x1="1.112009" y1="199.977988" x2="73.948211" y2="266.306447" stroke="black"/>
  <line id="back_left_edge" x1="0.000015" y1="0.009488" x2="0.002609" y2="199.990512" stroke="black"/>
  <circle id="top_back_left" cx="0.002609" cy="199.990512" r="2" fill="black"/>
  <line id="back_right_edge" x1="151.999983" y1="0.016096" x2="152.002099" y2="200.003304" stroke="black"/>
  <line id="top_back" x1="0.002609" y1="199.990512" x2="152.002099" y2="200.003304" stroke="black"/>
  <circle id="top_front_right" cx="152.920191" cy="207.589648" r="2" fill="black"/>
  <circle id="top_back_right" cx="152.002099" cy="200.003304" r="2" fill="black"/>
  <circle id="base_front_right" cx="151.809579" cy="7.605496" r="2" fill="black"/>
  <line id="front_left_edge" x1="0.000000" y1="0.000000" x2="1.112009" y2="199.977988" stroke="black"/>
  <line id="base_left" x1="0.000000" y1="0.000000" x2="0.000015" y2="0.009488" stroke="black"/>
  <line id="top_left" x1="1.112009" y1="199.977988" x2="0.002609" y2="199.990512" stroke="black"/>
  <line id="base_back" x1="0.000015" y1="0.009488" x2="151.999983" y2="0.016096" stroke="black"/>
  <line id="top_right" x1="152.920191" y1="207.589648" x2="152.002099" y2="200.003304" stroke="black"/>
  <line id="front_right_edge" x1="151.809579" y1="7.605496" x2="152.920191" y2="207.589648" stroke="black"/>
  <circle id="base_back_right" cx="151.999983" cy="0.016096" r="2" fill="black"/>
  <circle id="entrance_hole" cx="76.000000" cy="150.000000" r="19.000000" fill="none" stroke="black"/>
  <circle id="roof_peak" cx="73.948211" cy="266.306447" r="2" fill="black"/>
  <line id="base_front" x1="0.000000" y1="0.000000" x2="151.809579" y2="7.605496" stroke="black"/>
  <circle id="perch_end" cx="76.000000" cy="150.000000" r="2" fill="black"/>
  <line id="top_front" x1="1.112009" y1="199.977988" x2="152.920191" y2="207.589648" stroke="black"/>
  <circle id="top_front_left" cx="1.112009" cy="199.977988" r="2" fill="black"/>
  <line id="roof_back_right_ridge" x1="152.002099" y1="200.003304" x2="73.948211" y2="266.306447" stroke="black"/>
  <circle id="base_back_left" cx="0.000015" cy="0.009488" r="2" fill="black"/>
  <line id="roof_back_left_ridge" x1="0.002609" y1="199.990512" x2="73.948211" y2="266.306447" stroke="black"/>
  <circle id="entrance_center" cx="76.000000" cy="150.000000" r="2" fill="black"/>
</svg>